<mxfile host="app.diagrams.net" agent="Mozilla/5.0 (X11; Linux x86_64) AppleWebKit/537.36 (KHTML, like Gecko) Chrome/136.0.0.0 Safari/537.36" version="26.2.14">
  <diagram name="Página-1" id="gECjpRwm0TK3xnxmSCfN">
    <mxGraphModel dx="1378" dy="759" grid="1" gridSize="10" guides="1" tooltips="1" connect="1" arrows="1" fold="1" page="1" pageScale="1" pageWidth="827" pageHeight="1169" math="0" shadow="0">
      <root>
        <mxCell id="0" />
        <mxCell id="1" parent="0" />
        <mxCell id="FrfUZOvHRwgXqV2wJ_4j-1" value="LogTrustChain&#xa;├── Propósito&#xa;│   └── Garantizar integridad y trazabilidad de logs críticos&#xa;│&#xa;├── Arquitectura&#xa;│   ├── Agente LTC (Rust)&#xa;│   │   ├── Monitoreo de archivos&#xa;│   │   ├── Hash del contenido&#xa;│   │   ├── Firma digital por evento&#xa;│   │   └── Encadenamiento por prevHash&#xa;│   └── Plataforma Central&#xa;│       ├── Recepción de eventos&#xa;│       ├── Validación de firmas&#xa;│       ├── Almacenamiento seguro&#xa;│       └── Dashboard + API REST&#xa;│&#xa;├── Características clave&#xa;│   ├── Firma criptográfica (RSA / Ed25519)&#xa;│   ├── Encadenamiento de eventos&#xa;│   ├── Soporte offline / entornos cerrados&#xa;│   ├── Evidencia judicial / pericial&#xa;│   └── Trazabilidad completa&#xa;│&#xa;├── Público objetivo&#xa;│   ├── Gobiernos y justicia&#xa;│   ├── Finanzas y banca (PCI-DSS)&#xa;│   ├── Infraestructura crítica&#xa;│   ├── Sector salud&#xa;│   └── Consultoras forenses / MSSP&#xa;│&#xa;├── Modelo comercial&#xa;│   ├── Open core (AGPL)&#xa;│   ├── Licencias por nodo / appliance&#xa;│   └── Servicios premium:&#xa;│       ├── Dashboard visual&#xa;│       ├── Integraciones (LDAP, SIEM)&#xa;│       └── Soporte forense y legal&#xa;│&#xa;├── Cumplimiento legal&#xa;│   ├── GDPR&#xa;│   ├── ISO 27001&#xa;│   ├── PCI-DSS&#xa;│   └── Ley de firma digital&#xa;│&#xa;└── Futuro del producto&#xa;    ├── Timestamps verificables (NTP / blockchain)&#xa;    ├── Auditoría externa automatizada&#xa;    ├── Exportación legal de evidencia&#xa;    └── Plataforma SaaS" style="text;whiteSpace=wrap;" vertex="1" parent="1">
          <mxGeometry x="50" y="110" width="350" height="730" as="geometry" />
        </mxCell>
      </root>
    </mxGraphModel>
  </diagram>
</mxfile>
